<mxfile host="65bd71144e">
    <diagram id="jYRnBKx68YefSwy9-xvb" name="Page-1">
        <mxGraphModel dx="765" dy="1663" grid="1" gridSize="10" guides="1" tooltips="1" connect="1" arrows="1" fold="1" page="1" pageScale="1" pageWidth="850" pageHeight="1100" background="#ffffff" math="0" shadow="1">
            <root>
                <mxCell id="0"/>
                <mxCell id="1" parent="0"/>
                <UserObject label="" mermaidData="{&#xa;  &quot;data&quot;: &quot;classDiagram\n    %% Interfaces\n    class Interviewer {\n        &lt;&lt;interface&gt;&gt;\n        +askQuestions()\n    }\n\n    %% Concrete Implementations\n    class DeveloperInterviewer {\n        +askQuestions()\n    }\n\n    class ManagerInterviewer {\n        +askQuestions()\n    }\n\n    %% Factory Class\n    class InterviewerFactory {\n        +getInterviewer(String type) Interviewer\n    }\n\n    %% Client Class\n    class FactoryP {\n        +main(String[] args)\n    }\n\n    %% Relationships\n    Interviewer &lt;|.. DeveloperInterviewer : implements\n    Interviewer &lt;|.. ManagerInterviewer : implements\n\n    InterviewerFactory --&gt; Interviewer : creates\n    FactoryP --&gt; InterviewerFactory : uses\n&quot;&#xa;}" id="2">
                    <mxCell style="shape=image;noLabel=1;verticalAlign=top;imageAspect=1;image=data:image/svg+xml,PHN2ZyBhcmlhLXJvbGVkZXNjcmlwdGlvbj0iY2xhc3MiIHJvbGU9ImdyYXBoaWNzLWRvY3VtZW50IGRvY3VtZW50IiB2aWV3Qm94PSIwIDAgNDk2LjIzNzQ4Nzc5Mjk2ODc1IDc2MS4yMDAwNzMyNDIxODc1IiBzdHlsZT0ibWF4LXdpZHRoOiA0OTYuMjM3NDg3NzkyOTY4NzVweDsiIGNsYXNzPSJjbGFzc0RpYWdyYW0iIHhtbG5zPSJodHRwOi8vd3d3LnczLm9yZy8yMDAwL3N2ZyIgd2lkdGg9IjEwMCUiIGlkPSJnZU1lcm1haWRPdXRwdXQtMTc1MzExNDIzNjEwOSI+PHN0eWxlPiNnZU1lcm1haWRPdXRwdXQtMTc1MzExNDIzNjEwOXtmb250LWZhbWlseToidHJlYnVjaGV0IG1zIix2ZXJkYW5hLGFyaWFsLHNhbnMtc2VyaWY7Zm9udC1zaXplOjE2cHg7ZmlsbDojMDAwMDAwO30jZ2VNZXJtYWlkT3V0cHV0LTE3NTMxMTQyMzYxMDkgLmVycm9yLWljb257ZmlsbDojNTUyMjIyO30jZ2VNZXJtYWlkT3V0cHV0LTE3NTMxMTQyMzYxMDkgLmVycm9yLXRleHR7ZmlsbDojNTUyMjIyO3N0cm9rZTojNTUyMjIyO30jZ2VNZXJtYWlkT3V0cHV0LTE3NTMxMTQyMzYxMDkgLmVkZ2UtdGhpY2tuZXNzLW5vcm1hbHtzdHJva2Utd2lkdGg6MXB4O30jZ2VNZXJtYWlkT3V0cHV0LTE3NTMxMTQyMzYxMDkgLmVkZ2UtdGhpY2tuZXNzLXRoaWNre3N0cm9rZS13aWR0aDozLjVweDt9I2dlTWVybWFpZE91dHB1dC0xNzUzMTE0MjM2MTA5IC5lZGdlLXBhdHRlcm4tc29saWR7c3Ryb2tlLWRhc2hhcnJheTowO30jZ2VNZXJtYWlkT3V0cHV0LTE3NTMxMTQyMzYxMDkgLmVkZ2UtdGhpY2tuZXNzLWludmlzaWJsZXtzdHJva2Utd2lkdGg6MDtmaWxsOm5vbmU7fSNnZU1lcm1haWRPdXRwdXQtMTc1MzExNDIzNjEwOSAuZWRnZS1wYXR0ZXJuLWRhc2hlZHtzdHJva2UtZGFzaGFycmF5OjM7fSNnZU1lcm1haWRPdXRwdXQtMTc1MzExNDIzNjEwOSAuZWRnZS1wYXR0ZXJuLWRvdHRlZHtzdHJva2UtZGFzaGFycmF5OjI7fSNnZU1lcm1haWRPdXRwdXQtMTc1MzExNDIzNjEwOSAubWFya2Vye2ZpbGw6IzY2NjtzdHJva2U6IzY2Njt9I2dlTWVybWFpZE91dHB1dC0xNzUzMTE0MjM2MTA5IC5tYXJrZXIuY3Jvc3N7c3Ryb2tlOiM2NjY7fSNnZU1lcm1haWRPdXRwdXQtMTc1MzExNDIzNjEwOSBzdmd7Zm9udC1mYW1pbHk6InRyZWJ1Y2hldCBtcyIsdmVyZGFuYSxhcmlhbCxzYW5zLXNlcmlmO2ZvbnQtc2l6ZToxNnB4O30jZ2VNZXJtYWlkT3V0cHV0LTE3NTMxMTQyMzYxMDkgcHttYXJnaW46MDt9I2dlTWVybWFpZE91dHB1dC0xNzUzMTE0MjM2MTA5IGcuY2xhc3NHcm91cCB0ZXh0e2ZpbGw6Izk5OTtzdHJva2U6bm9uZTtmb250LWZhbWlseToidHJlYnVjaGV0IG1zIix2ZXJkYW5hLGFyaWFsLHNhbnMtc2VyaWY7Zm9udC1zaXplOjEwcHg7fSNnZU1lcm1haWRPdXRwdXQtMTc1MzExNDIzNjEwOSBnLmNsYXNzR3JvdXAgdGV4dCAudGl0bGV7Zm9udC13ZWlnaHQ6Ym9sZGVyO30jZ2VNZXJtYWlkT3V0cHV0LTE3NTMxMTQyMzYxMDkgLm5vZGVMYWJlbCwjZ2VNZXJtYWlkT3V0cHV0LTE3NTMxMTQyMzYxMDkgLmVkZ2VMYWJlbHtjb2xvcjojMTExMTExO30jZ2VNZXJtYWlkT3V0cHV0LTE3NTMxMTQyMzYxMDkgLmVkZ2VMYWJlbCAubGFiZWwgcmVjdHtmaWxsOiNlZWU7fSNnZU1lcm1haWRPdXRwdXQtMTc1MzExNDIzNjEwOSAubGFiZWwgdGV4dHtmaWxsOiMxMTExMTE7fSNnZU1lcm1haWRPdXRwdXQtMTc1MzExNDIzNjEwOSAubGFiZWxCa2d7YmFja2dyb3VuZDojZWVlO30jZ2VNZXJtYWlkT3V0cHV0LTE3NTMxMTQyMzYxMDkgLmVkZ2VMYWJlbCAubGFiZWwgc3BhbntiYWNrZ3JvdW5kOiNlZWU7fSNnZU1lcm1haWRPdXRwdXQtMTc1MzExNDIzNjEwOSAuY2xhc3NUaXRsZXtmb250LXdlaWdodDpib2xkZXI7fSNnZU1lcm1haWRPdXRwdXQtMTc1MzExNDIzNjEwOSAubm9kZSByZWN0LCNnZU1lcm1haWRPdXRwdXQtMTc1MzExNDIzNjEwOSAubm9kZSBjaXJjbGUsI2dlTWVybWFpZE91dHB1dC0xNzUzMTE0MjM2MTA5IC5ub2RlIGVsbGlwc2UsI2dlTWVybWFpZE91dHB1dC0xNzUzMTE0MjM2MTA5IC5ub2RlIHBvbHlnb24sI2dlTWVybWFpZE91dHB1dC0xNzUzMTE0MjM2MTA5IC5ub2RlIHBhdGh7ZmlsbDojZWVlO3N0cm9rZTojOTk5O3N0cm9rZS13aWR0aDoxcHg7fSNnZU1lcm1haWRPdXRwdXQtMTc1MzExNDIzNjEwOSAuZGl2aWRlcntzdHJva2U6Izk5OTtzdHJva2Utd2lkdGg6MTt9I2dlTWVybWFpZE91dHB1dC0xNzUzMTE0MjM2MTA5IGcuY2xpY2thYmxle2N1cnNvcjpwb2ludGVyO30jZ2VNZXJtYWlkT3V0cHV0LTE3NTMxMTQyMzYxMDkgZy5jbGFzc0dyb3VwIHJlY3R7ZmlsbDojZWVlO3N0cm9rZTojOTk5O30jZ2VNZXJtYWlkT3V0cHV0LTE3NTMxMTQyMzYxMDkgZy5jbGFzc0dyb3VwIGxpbmV7c3Ryb2tlOiM5OTk7c3Ryb2tlLXdpZHRoOjE7fSNnZU1lcm1haWRPdXRwdXQtMTc1MzExNDIzNjEwOSAuY2xhc3NMYWJlbCAuYm94e3N0cm9rZTpub25lO3N0cm9rZS13aWR0aDowO2ZpbGw6I2VlZTtvcGFjaXR5OjAuNTt9I2dlTWVybWFpZE91dHB1dC0xNzUzMTE0MjM2MTA5IC5jbGFzc0xhYmVsIC5sYWJlbHtmaWxsOiM5OTk7Zm9udC1zaXplOjEwcHg7fSNnZU1lcm1haWRPdXRwdXQtMTc1MzExNDIzNjEwOSAucmVsYXRpb257c3Ryb2tlOiM2NjY7c3Ryb2tlLXdpZHRoOjE7ZmlsbDpub25lO30jZ2VNZXJtYWlkT3V0cHV0LTE3NTMxMTQyMzYxMDkgLmRhc2hlZC1saW5le3N0cm9rZS1kYXNoYXJyYXk6Mzt9I2dlTWVybWFpZE91dHB1dC0xNzUzMTE0MjM2MTA5IC5kb3R0ZWQtbGluZXtzdHJva2UtZGFzaGFycmF5OjEgMjt9I2dlTWVybWFpZE91dHB1dC0xNzUzMTE0MjM2MTA5ICNjb21wb3NpdGlvblN0YXJ0LCNnZU1lcm1haWRPdXRwdXQtMTc1MzExNDIzNjEwOSAuY29tcG9zaXRpb257ZmlsbDojNjY2IWltcG9ydGFudDtzdHJva2U6IzY2NiFpbXBvcnRhbnQ7c3Ryb2tlLXdpZHRoOjE7fSNnZU1lcm1haWRPdXRwdXQtMTc1MzExNDIzNjEwOSAjY29tcG9zaXRpb25FbmQsI2dlTWVybWFpZE91dHB1dC0xNzUzMTE0MjM2MTA5IC5jb21wb3NpdGlvbntmaWxsOiM2NjYhaW1wb3J0YW50O3N0cm9rZTojNjY2IWltcG9ydGFudDtzdHJva2Utd2lkdGg6MTt9I2dlTWVybWFpZE91dHB1dC0xNzUzMTE0MjM2MTA5ICNkZXBlbmRlbmN5U3RhcnQsI2dlTWVybWFpZE91dHB1dC0xNzUzMTE0MjM2MTA5IC5kZXBlbmRlbmN5e2ZpbGw6IzY2NiFpbXBvcnRhbnQ7c3Ryb2tlOiM2NjYhaW1wb3J0YW50O3N0cm9rZS13aWR0aDoxO30jZ2VNZXJtYWlkT3V0cHV0LTE3NTMxMTQyMzYxMDkgI2RlcGVuZGVuY3lTdGFydCwjZ2VNZXJtYWlkT3V0cHV0LTE3NTMxMTQyMzYxMDkgLmRlcGVuZGVuY3l7ZmlsbDojNjY2IWltcG9ydGFudDtzdHJva2U6IzY2NiFpbXBvcnRhbnQ7c3Ryb2tlLXdpZHRoOjE7fSNnZU1lcm1haWRPdXRwdXQtMTc1MzExNDIzNjEwOSAjZXh0ZW5zaW9uU3RhcnQsI2dlTWVybWFpZE91dHB1dC0xNzUzMTE0MjM2MTA5IC5leHRlbnNpb257ZmlsbDp0cmFuc3BhcmVudCFpbXBvcnRhbnQ7c3Ryb2tlOiM2NjYhaW1wb3J0YW50O3N0cm9rZS13aWR0aDoxO30jZ2VNZXJtYWlkT3V0cHV0LTE3NTMxMTQyMzYxMDkgI2V4dGVuc2lvbkVuZCwjZ2VNZXJtYWlkT3V0cHV0LTE3NTMxMTQyMzYxMDkgLmV4dGVuc2lvbntmaWxsOnRyYW5zcGFyZW50IWltcG9ydGFudDtzdHJva2U6IzY2NiFpbXBvcnRhbnQ7c3Ryb2tlLXdpZHRoOjE7fSNnZU1lcm1haWRPdXRwdXQtMTc1MzExNDIzNjEwOSAjYWdncmVnYXRpb25TdGFydCwjZ2VNZXJtYWlkT3V0cHV0LTE3NTMxMTQyMzYxMDkgLmFnZ3JlZ2F0aW9ue2ZpbGw6dHJhbnNwYXJlbnQhaW1wb3J0YW50O3N0cm9rZTojNjY2IWltcG9ydGFudDtzdHJva2Utd2lkdGg6MTt9I2dlTWVybWFpZE91dHB1dC0xNzUzMTE0MjM2MTA5ICNhZ2dyZWdhdGlvbkVuZCwjZ2VNZXJtYWlkT3V0cHV0LTE3NTMxMTQyMzYxMDkgLmFnZ3JlZ2F0aW9ue2ZpbGw6dHJhbnNwYXJlbnQhaW1wb3J0YW50O3N0cm9rZTojNjY2IWltcG9ydGFudDtzdHJva2Utd2lkdGg6MTt9I2dlTWVybWFpZE91dHB1dC0xNzUzMTE0MjM2MTA5ICNsb2xsaXBvcFN0YXJ0LCNnZU1lcm1haWRPdXRwdXQtMTc1MzExNDIzNjEwOSAubG9sbGlwb3B7ZmlsbDojZWVlIWltcG9ydGFudDtzdHJva2U6IzY2NiFpbXBvcnRhbnQ7c3Ryb2tlLXdpZHRoOjE7fSNnZU1lcm1haWRPdXRwdXQtMTc1MzExNDIzNjEwOSAjbG9sbGlwb3BFbmQsI2dlTWVybWFpZE91dHB1dC0xNzUzMTE0MjM2MTA5IC5sb2xsaXBvcHtmaWxsOiNlZWUhaW1wb3J0YW50O3N0cm9rZTojNjY2IWltcG9ydGFudDtzdHJva2Utd2lkdGg6MTt9I2dlTWVybWFpZE91dHB1dC0xNzUzMTE0MjM2MTA5IC5lZGdlVGVybWluYWxze2ZvbnQtc2l6ZToxMXB4O2xpbmUtaGVpZ2h0OmluaXRpYWw7fSNnZU1lcm1haWRPdXRwdXQtMTc1MzExNDIzNjEwOSAuY2xhc3NUaXRsZVRleHR7dGV4dC1hbmNob3I6bWlkZGxlO2ZvbnQtc2l6ZToxOHB4O2ZpbGw6IzAwMDAwMDt9I2dlTWVybWFpZE91dHB1dC0xNzUzMTE0MjM2MTA5IDpyb290ey0tbWVybWFpZC1mb250LWZhbWlseToidHJlYnVjaGV0IG1zIix2ZXJkYW5hLGFyaWFsLHNhbnMtc2VyaWY7fTwvc3R5bGU+PGc+PGRlZnM+PG1hcmtlciBvcmllbnQ9ImF1dG8iIG1hcmtlckhlaWdodD0iMjQwIiBtYXJrZXJXaWR0aD0iMTkwIiByZWZZPSI3IiByZWZYPSIxOCIgY2xhc3M9Im1hcmtlciBhZ2dyZWdhdGlvbiBjbGFzcyIgaWQ9ImdlTWVybWFpZE91dHB1dC0xNzUzMTE0MjM2MTA5X2NsYXNzLWFnZ3JlZ2F0aW9uU3RhcnQiPjxwYXRoIGQ9Ik0gMTgsNyBMOSwxMyBMMSw3IEw5LDEgWiI+PC9wYXRoPjwvbWFya2VyPjwvZGVmcz48ZGVmcz48bWFya2VyIG9yaWVudD0iYXV0byIgbWFya2VySGVpZ2h0PSIyOCIgbWFya2VyV2lkdGg9IjIwIiByZWZZPSI3IiByZWZYPSIxIiBjbGFzcz0ibWFya2VyIGFnZ3JlZ2F0aW9uIGNsYXNzIiBpZD0iZ2VNZXJtYWlkT3V0cHV0LTE3NTMxMTQyMzYxMDlfY2xhc3MtYWdncmVnYXRpb25FbmQiPjxwYXRoIGQ9Ik0gMTgsNyBMOSwxMyBMMSw3IEw5LDEgWiI+PC9wYXRoPjwvbWFya2VyPjwvZGVmcz48ZGVmcz48bWFya2VyIG9yaWVudD0iYXV0byIgbWFya2VySGVpZ2h0PSIyNDAiIG1hcmtlcldpZHRoPSIxOTAiIHJlZlk9IjciIHJlZlg9IjE4IiBjbGFzcz0ibWFya2VyIGV4dGVuc2lvbiBjbGFzcyIgaWQ9ImdlTWVybWFpZE91dHB1dC0xNzUzMTE0MjM2MTA5X2NsYXNzLWV4dGVuc2lvblN0YXJ0Ij48cGF0aCBkPSJNIDEsNyBMMTgsMTMgViAxIFoiPjwvcGF0aD48L21hcmtlcj48L2RlZnM+PGRlZnM+PG1hcmtlciBvcmllbnQ9ImF1dG8iIG1hcmtlckhlaWdodD0iMjgiIG1hcmtlcldpZHRoPSIyMCIgcmVmWT0iNyIgcmVmWD0iMSIgY2xhc3M9Im1hcmtlciBleHRlbnNpb24gY2xhc3MiIGlkPSJnZU1lcm1haWRPdXRwdXQtMTc1MzExNDIzNjEwOV9jbGFzcy1leHRlbnNpb25FbmQiPjxwYXRoIGQ9Ik0gMSwxIFYgMTMgTDE4LDcgWiI+PC9wYXRoPjwvbWFya2VyPjwvZGVmcz48ZGVmcz48bWFya2VyIG9yaWVudD0iYXV0byIgbWFya2VySGVpZ2h0PSIyNDAiIG1hcmtlcldpZHRoPSIxOTAiIHJlZlk9IjciIHJlZlg9IjE4IiBjbGFzcz0ibWFya2VyIGNvbXBvc2l0aW9uIGNsYXNzIiBpZD0iZ2VNZXJtYWlkT3V0cHV0LTE3NTMxMTQyMzYxMDlfY2xhc3MtY29tcG9zaXRpb25TdGFydCI+PHBhdGggZD0iTSAxOCw3IEw5LDEzIEwxLDcgTDksMSBaIj48L3BhdGg+PC9tYXJrZXI+PC9kZWZzPjxkZWZzPjxtYXJrZXIgb3JpZW50PSJhdXRvIiBtYXJrZXJIZWlnaHQ9IjI4IiBtYXJrZXJXaWR0aD0iMjAiIHJlZlk9IjciIHJlZlg9IjEiIGNsYXNzPSJtYXJrZXIgY29tcG9zaXRpb24gY2xhc3MiIGlkPSJnZU1lcm1haWRPdXRwdXQtMTc1MzExNDIzNjEwOV9jbGFzcy1jb21wb3NpdGlvbkVuZCI+PHBhdGggZD0iTSAxOCw3IEw5LDEzIEwxLDcgTDksMSBaIj48L3BhdGg+PC9tYXJrZXI+PC9kZWZzPjxkZWZzPjxtYXJrZXIgb3JpZW50PSJhdXRvIiBtYXJrZXJIZWlnaHQ9IjI0MCIgbWFya2VyV2lkdGg9IjE5MCIgcmVmWT0iNyIgcmVmWD0iNiIgY2xhc3M9Im1hcmtlciBkZXBlbmRlbmN5IGNsYXNzIiBpZD0iZ2VNZXJtYWlkT3V0cHV0LTE3NTMxMTQyMzYxMDlfY2xhc3MtZGVwZW5kZW5jeVN0YXJ0Ij48cGF0aCBkPSJNIDUsNyBMOSwxMyBMMSw3IEw5LDEgWiI+PC9wYXRoPjwvbWFya2VyPjwvZGVmcz48ZGVmcz48bWFya2VyIG9yaWVudD0iYXV0byIgbWFya2VySGVpZ2h0PSIyOCIgbWFya2VyV2lkdGg9IjIwIiByZWZZPSI3IiByZWZYPSIxMyIgY2xhc3M9Im1hcmtlciBkZXBlbmRlbmN5IGNsYXNzIiBpZD0iZ2VNZXJtYWlkT3V0cHV0LTE3NTMxMTQyMzYxMDlfY2xhc3MtZGVwZW5kZW5jeUVuZCI+PHBhdGggZD0iTSAxOCw3IEw5LDEzIEwxNCw3IEw5LDEgWiI+PC9wYXRoPjwvbWFya2VyPjwvZGVmcz48ZGVmcz48bWFya2VyIG9yaWVudD0iYXV0byIgbWFya2VySGVpZ2h0PSIyNDAiIG1hcmtlcldpZHRoPSIxOTAiIHJlZlk9IjciIHJlZlg9IjEzIiBjbGFzcz0ibWFya2VyIGxvbGxpcG9wIGNsYXNzIiBpZD0iZ2VNZXJtYWlkT3V0cHV0LTE3NTMxMTQyMzYxMDlfY2xhc3MtbG9sbGlwb3BTdGFydCI+PGNpcmNsZSByPSI2IiBjeT0iNyIgY3g9IjciIGZpbGw9InRyYW5zcGFyZW50IiBzdHJva2U9ImJsYWNrIj48L2NpcmNsZT48L21hcmtlcj48L2RlZnM+PGRlZnM+PG1hcmtlciBvcmllbnQ9ImF1dG8iIG1hcmtlckhlaWdodD0iMjQwIiBtYXJrZXJXaWR0aD0iMTkwIiByZWZZPSI3IiByZWZYPSIxIiBjbGFzcz0ibWFya2VyIGxvbGxpcG9wIGNsYXNzIiBpZD0iZ2VNZXJtYWlkT3V0cHV0LTE3NTMxMTQyMzYxMDlfY2xhc3MtbG9sbGlwb3BFbmQiPjxjaXJjbGUgcj0iNiIgY3k9IjciIGN4PSI3IiBmaWxsPSJ0cmFuc3BhcmVudCIgc3Ryb2tlPSJibGFjayI+PC9jaXJjbGU+PC9tYXJrZXI+PC9kZWZzPjxnIGNsYXNzPSJyb290Ij48ZyBjbGFzcz0iY2x1c3RlcnMiPjwvZz48ZyBjbGFzcz0iZWRnZVBhdGhzIj48cGF0aCBtYXJrZXItc3RhcnQ9InVybCgjZ2VNZXJtYWlkT3V0cHV0LTE3NTMxMTQyMzYxMDlfY2xhc3MtZXh0ZW5zaW9uU3RhcnQpIiBzdHlsZT0iOyIgY2xhc3M9ImVkZ2UtdGhpY2tuZXNzLW5vcm1hbCBlZGdlLXBhdHRlcm4tZGFzaGVkIHJlbGF0aW9uIiBpZD0iaWRfSW50ZXJ2aWV3ZXJfRGV2ZWxvcGVySW50ZXJ2aWV3ZXJfMSIgZD0iTTE0Ni42NDEsNTY2LjM2OEwxNDEuNzQ3LDU3MC40NzRDMTM2Ljg1Myw1NzQuNTc5LDEyNy4wNjYsNTgyLjc4OSwxMjIuMTcyLDU5Mi45MjhDMTE3LjI3OCw2MDMuMDY3LDExNy4yNzgsNjE1LjEzMywxMTcuMjc4LDYyMS4xNjdMMTE3LjI3OCw2MjcuMiI+PC9wYXRoPjxwYXRoIG1hcmtlci1zdGFydD0idXJsKCNnZU1lcm1haWRPdXRwdXQtMTc1MzExNDIzNjEwOV9jbGFzcy1leHRlbnNpb25TdGFydCkiIHN0eWxlPSI7IiBjbGFzcz0iZWRnZS10aGlja25lc3Mtbm9ybWFsIGVkZ2UtcGF0dGVybi1kYXNoZWQgcmVsYXRpb24iIGlkPSJpZF9JbnRlcnZpZXdlcl9NYW5hZ2VySW50ZXJ2aWV3ZXJfMiIgZD0iTTM1My4wMzQsNTY2LjM2OEwzNTcuOTI4LDU3MC40NzRDMzYyLjgyMiw1NzQuNTc5LDM3Mi42MDksNTgyLjc4OSwzNzcuNTAzLDU5Mi45MjhDMzgyLjM5Nyw2MDMuMDY3LDM4Mi4zOTcsNjE1LjEzMywzODIuMzk3LDYyMS4xNjdMMzgyLjM5Nyw2MjcuMiI+PC9wYXRoPjxwYXRoIG1hcmtlci1lbmQ9InVybCgjZ2VNZXJtYWlkT3V0cHV0LTE3NTMxMTQyMzYxMDlfY2xhc3MtZGVwZW5kZW5jeUVuZCkiIHN0eWxlPSI7IiBjbGFzcz0iZWRnZS10aGlja25lc3Mtbm9ybWFsIGVkZ2UtcGF0dGVybi1zb2xpZCByZWxhdGlvbiIgaWQ9ImlkX0ludGVydmlld2VyRmFjdG9yeV9JbnRlcnZpZXdlcl8zIiBkPSJNMjQ5LjgzOCwzMzIuNEwyNDkuODM4LDMzOC40MzNDMjQ5LjgzOCwzNDQuNDY3LDI0OS44MzgsMzU2LjUzMywyNDkuODM4LDM2Ny42QzI0OS44MzgsMzc4LjY2NywyNDkuODM4LDM4OC43MzMsMjQ5LjgzOCwzOTMuNzY3TDI0OS44MzgsMzk4LjgiPjwvcGF0aD48cGF0aCBtYXJrZXItZW5kPSJ1cmwoI2dlTWVybWFpZE91dHB1dC0xNzUzMTE0MjM2MTA5X2NsYXNzLWRlcGVuZGVuY3lFbmQpIiBzdHlsZT0iOyIgY2xhc3M9ImVkZ2UtdGhpY2tuZXNzLW5vcm1hbCBlZGdlLXBhdHRlcm4tc29saWQgcmVsYXRpb24iIGlkPSJpZF9GYWN0b3J5UF9JbnRlcnZpZXdlckZhY3RvcnlfNCIgZD0iTTI0OS44MzgsMTM0TDI0OS44MzgsMTQwLjAzM0MyNDkuODM4LDE0Ni4wNjcsMjQ5LjgzOCwxNTguMTMzLDI0OS44MzgsMTY5LjJDMjQ5LjgzOCwxODAuMjY3LDI0OS44MzgsMTkwLjMzMywyNDkuODM4LDE5NS4zNjdMMjQ5LjgzOCwyMDAuNCI+PC9wYXRoPjwvZz48ZyBjbGFzcz0iZWRnZUxhYmVscyI+PGcgdHJhbnNmb3JtPSJ0cmFuc2xhdGUoMTE3LjI3ODEyOTU3NzYzNjcyLCA1OTAuOTk5OTk5MDQ2MzI1NykiIGNsYXNzPSJlZGdlTGFiZWwiPjxnIHRyYW5zZm9ybT0idHJhbnNsYXRlKC00My44ODc1MDA3NjI5Mzk0NSwgLTExLjE5OTk5OTgwOTI2NTEzNykiIGNsYXNzPSJsYWJlbCI+PGc+PHJlY3QgaGVpZ2h0PSIyMi4zOTk5OTk2MTg1MzAyNzMiIHdpZHRoPSI4Ny43NzUwMDE1MjU4Nzg5IiB5PSItMS4xOTk5OTk5ODgwNzkwNzEiIHg9Ii0yIiBzdHlsZT0iO2Rpc3BsYXk6IGlubGluZS1ibG9jayIgY2xhc3M9ImJhY2tncm91bmQiPjwvcmVjdD48dGV4dCBzdHlsZT0iO2Rpc3BsYXk6IGlubGluZS1ibG9jayIgeT0iLTEwLjEiPjx0c3BhbiBkeT0iMS4xZW0iIHk9Ii0wLjFlbSIgeD0iMCIgY2xhc3M9InRleHQtb3V0ZXItdHNwYW4iPjx0c3BhbiBmb250LXdlaWdodD0ibm9ybWFsIiBjbGFzcz0idGV4dC1pbm5lci10c3BhbiIgZm9udC1zdHlsZT0ibm9ybWFsIj5pbXBsZW1lbnRzPC90c3Bhbj48L3RzcGFuPjwvdGV4dD48L2c+PC9nPjwvZz48ZyB0cmFuc2Zvcm09InRyYW5zbGF0ZSgzODIuMzk2ODg4NzMyOTEwMTYsIDU5MC45OTk5OTkwNDYzMjU3KSIgY2xhc3M9ImVkZ2VMYWJlbCI+PGcgdHJhbnNmb3JtPSJ0cmFuc2xhdGUoLTQzLjg4NzUwMDc2MjkzOTQ1LCAtMTEuMTk5OTk5ODA5MjY1MTM3KSIgY2xhc3M9ImxhYmVsIj48Zz48cmVjdCBoZWlnaHQ9IjIyLjM5OTk5OTYxODUzMDI3MyIgd2lkdGg9Ijg3Ljc3NTAwMTUyNTg3ODkiIHk9Ii0xLjE5OTk5OTk4ODA3OTA3MSIgeD0iLTIiIHN0eWxlPSI7ZGlzcGxheTogaW5saW5lLWJsb2NrIiBjbGFzcz0iYmFja2dyb3VuZCI+PC9yZWN0Pjx0ZXh0IHN0eWxlPSI7ZGlzcGxheTogaW5saW5lLWJsb2NrIiB5PSItMTAuMSI+PHRzcGFuIGR5PSIxLjFlbSIgeT0iLTAuMWVtIiB4PSIwIiBjbGFzcz0idGV4dC1vdXRlci10c3BhbiI+PHRzcGFuIGZvbnQtd2VpZ2h0PSJub3JtYWwiIGNsYXNzPSJ0ZXh0LWlubmVyLXRzcGFuIiBmb250LXN0eWxlPSJub3JtYWwiPmltcGxlbWVudHM8L3RzcGFuPjwvdHNwYW4+PC90ZXh0PjwvZz48L2c+PC9nPjxnIHRyYW5zZm9ybT0idHJhbnNsYXRlKDI0OS44Mzc1MDkxNTUyNzM0NCwgMzY4LjU5OTk5OTQyNzc5NTQpIiBjbGFzcz0iZWRnZUxhYmVsIj48ZyB0cmFuc2Zvcm09InRyYW5zbGF0ZSgtMjguNDEyNTAwMzgxNDY5NzI3LCAtMTEuMTk5OTk5ODA5MjY1MTM3KSIgY2xhc3M9ImxhYmVsIj48Zz48cmVjdCBoZWlnaHQ9IjIyLjM5OTk5OTYxODUzMDI3MyIgd2lkdGg9IjU2LjgyNTAwMDc2MjkzOTQ1IiB5PSItMS4xOTk5OTk5ODgwNzkwNzEiIHg9Ii0yIiBzdHlsZT0iO2Rpc3BsYXk6IGlubGluZS1ibG9jayIgY2xhc3M9ImJhY2tncm91bmQiPjwvcmVjdD48dGV4dCBzdHlsZT0iO2Rpc3BsYXk6IGlubGluZS1ibG9jayIgeT0iLTEwLjEiPjx0c3BhbiBkeT0iMS4xZW0iIHk9Ii0wLjFlbSIgeD0iMCIgY2xhc3M9InRleHQtb3V0ZXItdHNwYW4iPjx0c3BhbiBmb250LXdlaWdodD0ibm9ybWFsIiBjbGFzcz0idGV4dC1pbm5lci10c3BhbiIgZm9udC1zdHlsZT0ibm9ybWFsIj5jcmVhdGVzPC90c3Bhbj48L3RzcGFuPjwvdGV4dD48L2c+PC9nPjwvZz48ZyB0cmFuc2Zvcm09InRyYW5zbGF0ZSgyNDkuODM3NTA5MTU1MjczNDQsIDE3MC4xOTk5OTk4MDkyNjUxNCkiIGNsYXNzPSJlZGdlTGFiZWwiPjxnIHRyYW5zZm9ybT0idHJhbnNsYXRlKC0xNy4yMTI0OTk2MTg1MzAyNzMsIC0xMS4xOTk5OTk4MDkyNjUxMzcpIiBjbGFzcz0ibGFiZWwiPjxnPjxyZWN0IGhlaWdodD0iMjIuMzk5OTk5NjE4NTMwMjczIiB3aWR0aD0iMzQuNDI1MDAxMTQ0NDA5MTgiIHk9Ii0xLjE5OTk5OTk4ODA3OTA3MSIgeD0iLTIiIHN0eWxlPSI7ZGlzcGxheTogaW5saW5lLWJsb2NrIiBjbGFzcz0iYmFja2dyb3VuZCI+PC9yZWN0Pjx0ZXh0IHN0eWxlPSI7ZGlzcGxheTogaW5saW5lLWJsb2NrIiB5PSItMTAuMSI+PHRzcGFuIGR5PSIxLjFlbSIgeT0iLTAuMWVtIiB4PSIwIiBjbGFzcz0idGV4dC1vdXRlci10c3BhbiI+PHRzcGFuIGZvbnQtd2VpZ2h0PSJub3JtYWwiIGNsYXNzPSJ0ZXh0LWlubmVyLXRzcGFuIiBmb250LXN0eWxlPSJub3JtYWwiPnVzZXM8L3RzcGFuPjwvdHNwYW4+PC90ZXh0PjwvZz48L2c+PC9nPjwvZz48ZyBjbGFzcz0ibm9kZXMiPjxnIHRyYW5zZm9ybT0idHJhbnNsYXRlKDI0OS44Mzc1MDkxNTUyNzM0NCwgNDc5Ljc5OTk5OTIzNzA2MDU1KSIgaWQ9ImNsYXNzSWQtSW50ZXJ2aWV3ZXItMCIgY2xhc3M9Im5vZGUgZGVmYXVsdCI+PGcgY2xhc3M9ImJhc2ljIGxhYmVsLWNvbnRhaW5lciI+PHBhdGggc3R5bGU9IiIgZmlsbD0iI2VlZSIgc3Ryb2tlLXdpZHRoPSIwIiBzdHJva2U9Im5vbmUiIGQ9Ik0tOTAuMjE4NzUgLTc1IEw5MC4yMTg3NSAtNzUgTDkwLjIxODc1IDc1IEwtOTAuMjE4NzUgNzUiPjwvcGF0aD48cGF0aCBzdHlsZT0iIiBmaWxsPSJub25lIiBzdHJva2Utd2lkdGg9IjEuMyIgc3Ryb2tlPSIjOTk5IiBkPSJNLTkwLjIxODc1IC03NSBDLTQ5LjE1NDk2NDQ4Nzk4NzE0NCAtNzUsIC04LjA5MTE3ODk3NTk3NDI4NyAtNzUsIDkwLjIxODc1IC03NSBNLTkwLjIxODc1IC03NSBDLTUyLjMyNTMwMzIxMzcyOTMwNiAtNzUsIC0xNC40MzE4NTY0Mjc0NTg2MTIgLTc1LCA5MC4yMTg3NSAtNzUgTTkwLjIxODc1IC03NSBDOTAuMjE4NzUgLTMzLjU3ODE0MjM3Nzc1NjMzNiwgOTAuMjE4NzUgNy44NDM3MTUyNDQ0ODczMjgsIDkwLjIxODc1IDc1IE05MC4yMTg3NSAtNzUgQzkwLjIxODc1IC0xNy4xNzY0NTg4NDA3NjAxMzQsIDkwLjIxODc1IDQwLjY0NzA4MjMxODQ3OTczLCA5MC4yMTg3NSA3NSBNOTAuMjE4NzUgNzUgQzI4Ljk3MDExNjQzNTI4OTQ1NSA3NSwgLTMyLjI3ODUxNzEyOTQyMTA5IDc1LCAtOTAuMjE4NzUgNzUgTTkwLjIxODc1IDc1IEMyMi42Nzg3NjMyODQwMDgzNyA3NSwgLTQ0Ljg2MTIyMzQzMTk4MzI2IDc1LCAtOTAuMjE4NzUgNzUgTS05MC4yMTg3NSA3NSBDLTkwLjIxODc1IDI1LjEyMDE2NzAzNDk4ODg5LCAtOTAuMjE4NzUgLTI0Ljc1OTY2NTkzMDAyMjIyMywgLTkwLjIxODc1IC03NSBNLTkwLjIxODc1IDc1IEMtOTAuMjE4NzUgMjguNTEwMDkxNjk3MjMxMjc1LCAtOTAuMjE4NzUgLTE3Ljk3OTgxNjYwNTUzNzQ1LCAtOTAuMjE4NzUgLTc1Ij48L3BhdGg+PC9nPjxnIHRyYW5zZm9ybT0idHJhbnNsYXRlKC00MS4xNzQ5OTkyMzcwNjA1NSwgLTUxKSIgY2xhc3M9ImFubm90YXRpb24tZ3JvdXAgdGV4dCI+PGcgdHJhbnNmb3JtPSJ0cmFuc2xhdGUoMCwtMTIpIiBzdHlsZT0iIiBjbGFzcz0ibGFiZWwiPjxmb3JlaWduT2JqZWN0IGhlaWdodD0iMjQiIHdpZHRoPSI4Mi4zNDk5OTg0NzQxMjExIj48ZGl2IHN0eWxlPSJkaXNwbGF5OiB0YWJsZS1jZWxsOyB3aGl0ZS1zcGFjZTogbm93cmFwOyBsaW5lLWhlaWdodDogMS41OyBtYXgtd2lkdGg6IDEyN3B4OyB0ZXh0LWFsaWduOiBjZW50ZXI7IiB4bWxucz0iaHR0cDovL3d3dy53My5vcmcvMTk5OS94aHRtbCI+PHNwYW4gc3R5bGU9IiIgY2xhc3M9Im5vZGVMYWJlbCBtYXJrZG93bi1ub2RlLWxhYmVsIj48cD7Cq2ludGVyZmFjZcK7PC9wPjwvc3Bhbj48L2Rpdj48L2ZvcmVpZ25PYmplY3Q+PC9nPjwvZz48ZyB0cmFuc2Zvcm09InRyYW5zbGF0ZSgtNDMuODc1LCAtMjcpIiBjbGFzcz0ibGFiZWwtZ3JvdXAgdGV4dCI+PGcgdHJhbnNmb3JtPSJ0cmFuc2xhdGUoMCwtMTIpIiBzdHlsZT0iZm9udC13ZWlnaHQ6IGJvbGRlciIgY2xhc3M9ImxhYmVsIj48Zm9yZWlnbk9iamVjdCBoZWlnaHQ9IjI0IiB3aWR0aD0iODcuNzUiPjxkaXYgc3R5bGU9ImRpc3BsYXk6IHRhYmxlLWNlbGw7IHdoaXRlLXNwYWNlOiBub3dyYXA7IGxpbmUtaGVpZ2h0OiAxLjU7IG1heC13aWR0aDogMTI5cHg7IHRleHQtYWxpZ246IGNlbnRlcjsiIHhtbG5zPSJodHRwOi8vd3d3LnczLm9yZy8xOTk5L3hodG1sIj48c3BhbiBzdHlsZT0iIiBjbGFzcz0ibm9kZUxhYmVsIG1hcmtkb3duLW5vZGUtbGFiZWwiPjxwPkludGVydmlld2VyPC9wPjwvc3Bhbj48L2Rpdj48L2ZvcmVpZ25PYmplY3Q+PC9nPjwvZz48ZyB0cmFuc2Zvcm09InRyYW5zbGF0ZSgtNzguMjE4NzUsIDIxKSIgY2xhc3M9Im1lbWJlcnMtZ3JvdXAgdGV4dCI+PC9nPjxnIHRyYW5zZm9ybT0idHJhbnNsYXRlKC03OC4yMTg3NSwgNTEpIiBjbGFzcz0ibWV0aG9kcy1ncm91cCB0ZXh0Ij48ZyB0cmFuc2Zvcm09InRyYW5zbGF0ZSgwLC0xMikiIHN0eWxlPSIiIGNsYXNzPSJsYWJlbCI+PGZvcmVpZ25PYmplY3QgaGVpZ2h0PSIyNCIgd2lkdGg9IjExMi41NjI1Ij48ZGl2IHN0eWxlPSJkaXNwbGF5OiB0YWJsZS1jZWxsOyB3aGl0ZS1zcGFjZTogbm93cmFwOyBsaW5lLWhlaWdodDogMS41OyBtYXgtd2lkdGg6IDE3MXB4OyB0ZXh0LWFsaWduOiBjZW50ZXI7IiB4bWxucz0iaHR0cDovL3d3dy53My5vcmcvMTk5OS94aHRtbCI+PHNwYW4gc3R5bGU9IiIgY2xhc3M9Im5vZGVMYWJlbCBtYXJrZG93bi1ub2RlLWxhYmVsIj48cD4rYXNrUXVlc3Rpb25zKCk8L3A+PC9zcGFuPjwvZGl2PjwvZm9yZWlnbk9iamVjdD48L2c+PC9nPjxnIHN0eWxlPSIiIGNsYXNzPSJkaXZpZGVyIj48cGF0aCBzdHlsZT0iIiBmaWxsPSJub25lIiBzdHJva2Utd2lkdGg9IjEuMyIgc3Ryb2tlPSIjOTk5IiBkPSJNLTkwLjIxODc1IC0zIEMtNDIuOTIwMjcxNzA4NzE2MzM1IC0zLCA0LjM3ODIwNjU4MjU2NzMzIC0zLCA5MC4yMTg3NSAtMyBNLTkwLjIxODc1IC0zIEMtNDAuMDQ3NzIyMDUxNjk0MjcgLTMsIDEwLjEyMzMwNTg5NjYxMTQ1NiAtMywgOTAuMjE4NzUgLTMiPjwvcGF0aD48L2c+PGcgc3R5bGU9IiIgY2xhc3M9ImRpdmlkZXIiPjxwYXRoIHN0eWxlPSIiIGZpbGw9Im5vbmUiIHN0cm9rZS13aWR0aD0iMS4zIiBzdHJva2U9IiM5OTkiIGQ9Ik0tOTAuMjE4NzUgMjEgQy0zOC45MjQ0Njg1MDY2MjU2NCAyMSwgMTIuMzY5ODEyOTg2NzQ4NzI3IDIxLCA5MC4yMTg3NSAyMSBNLTkwLjIxODc1IDIxIEMtMjguNjc3NzYxNjA3MjUyNjkgMjEsIDMyLjg2MzIyNjc4NTQ5NDYyIDIxLCA5MC4yMTg3NSAyMSI+PC9wYXRoPjwvZz48L2c+PGcgdHJhbnNmb3JtPSJ0cmFuc2xhdGUoMTE3LjI3ODEyOTU3NzYzNjcyLCA2OTAuMTk5OTk4ODU1NTkwOCkiIGlkPSJjbGFzc0lkLURldmVsb3BlckludGVydmlld2VyLTEiIGNsYXNzPSJub2RlIGRlZmF1bHQiPjxnIGNsYXNzPSJiYXNpYyBsYWJlbC1jb250YWluZXIiPjxwYXRoIHN0eWxlPSIiIGZpbGw9IiNlZWUiIHN0cm9rZS13aWR0aD0iMCIgc3Ryb2tlPSJub25lIiBkPSJNLTEwOS4yNzgxMjk1Nzc2MzY3MiAtNjMgTDEwOS4yNzgxMjk1Nzc2MzY3MiAtNjMgTDEwOS4yNzgxMjk1Nzc2MzY3MiA2MyBMLTEwOS4yNzgxMjk1Nzc2MzY3MiA2MyI+PC9wYXRoPjxwYXRoIHN0eWxlPSIiIGZpbGw9Im5vbmUiIHN0cm9rZS13aWR0aD0iMS4zIiBzdHJva2U9IiM5OTkiIGQ9Ik0tMTA5LjI3ODEyOTU3NzYzNjcyIC02MyBDLTMwLjA1MjA2ODU0NzA0NjQ5IC02MywgNDkuMTczOTkyNDgzNTQzNzQgLTYzLCAxMDkuMjc4MTI5NTc3NjM2NzIgLTYzIE0tMTA5LjI3ODEyOTU3NzYzNjcyIC02MyBDLTMwLjQ5MDQ3NTg0MDAxNTc3NiAtNjMsIDQ4LjI5NzE3Nzg5NzYwNTE3IC02MywgMTA5LjI3ODEyOTU3NzYzNjcyIC02MyBNMTA5LjI3ODEyOTU3NzYzNjcyIC02MyBDMTA5LjI3ODEyOTU3NzYzNjcyIC0zMy4xMTUzNDU5MTcwMDM3OSwgMTA5LjI3ODEyOTU3NzYzNjcyIC0zLjIzMDY5MTgzNDAwNzU3OTYsIDEwOS4yNzgxMjk1Nzc2MzY3MiA2MyBNMTA5LjI3ODEyOTU3NzYzNjcyIC02MyBDMTA5LjI3ODEyOTU3NzYzNjcyIC0yNy4wMzIwOTY1NTQ1NzM1MiwgMTA5LjI3ODEyOTU3NzYzNjcyIDguOTM1ODA2ODkwODUyOTU5LCAxMDkuMjc4MTI5NTc3NjM2NzIgNjMgTTEwOS4yNzgxMjk1Nzc2MzY3MiA2MyBDNDIuMzI1Mjk1NTQ4ODMxMzYgNjMsIC0yNC42Mjc1Mzg0Nzk5NzM5OTIgNjMsIC0xMDkuMjc4MTI5NTc3NjM2NzIgNjMgTTEwOS4yNzgxMjk1Nzc2MzY3MiA2MyBDMjQuNjQ0MDg2Mzc4MTU5MTczIDYzLCAtNTkuOTg5OTU2ODIxMzE4MzcgNjMsIC0xMDkuMjc4MTI5NTc3NjM2NzIgNjMgTS0xMDkuMjc4MTI5NTc3NjM2NzIgNjMgQy0xMDkuMjc4MTI5NTc3NjM2NzIgMTQuNzM2NzQ1Mjg3NzY0ODEyLCAtMTA5LjI3ODEyOTU3NzYzNjcyIC0zMy41MjY1MDk0MjQ0NzAzNzYsIC0xMDkuMjc4MTI5NTc3NjM2NzIgLTYzIE0tMTA5LjI3ODEyOTU3NzYzNjcyIDYzIEMtMTA5LjI3ODEyOTU3NzYzNjcyIDE4Ljg1NTU3MDU5MTEwMTk1LCAtMTA5LjI3ODEyOTU3NzYzNjcyIC0yNS4yODg4NTg4MTc3OTYwOTcsIC0xMDkuMjc4MTI5NTc3NjM2NzIgLTYzIj48L3BhdGg+PC9nPjxnIHRyYW5zZm9ybT0idHJhbnNsYXRlKDAsIC0zOSkiIGNsYXNzPSJhbm5vdGF0aW9uLWdyb3VwIHRleHQiPjwvZz48ZyB0cmFuc2Zvcm09InRyYW5zbGF0ZSgtODEuOTkzNzUxNTI1ODc4OSwgLTM5KSIgY2xhc3M9ImxhYmVsLWdyb3VwIHRleHQiPjxnIHRyYW5zZm9ybT0idHJhbnNsYXRlKDAsLTEyKSIgc3R5bGU9ImZvbnQtd2VpZ2h0OiBib2xkZXIiIGNsYXNzPSJsYWJlbCI+PGZvcmVpZ25PYmplY3QgaGVpZ2h0PSIyNCIgd2lkdGg9IjE2My45ODc1MDMwNTE3NTc4Ij48ZGl2IHN0eWxlPSJkaXNwbGF5OiB0YWJsZS1jZWxsOyB3aGl0ZS1zcGFjZTogbm93cmFwOyBsaW5lLWhlaWdodDogMS41OyBtYXgtd2lkdGg6IDIwMXB4OyB0ZXh0LWFsaWduOiBjZW50ZXI7IiB4bWxucz0iaHR0cDovL3d3dy53My5vcmcvMTk5OS94aHRtbCI+PHNwYW4gc3R5bGU9IiIgY2xhc3M9Im5vZGVMYWJlbCBtYXJrZG93bi1ub2RlLWxhYmVsIj48cD5EZXZlbG9wZXJJbnRlcnZpZXdlcjwvcD48L3NwYW4+PC9kaXY+PC9mb3JlaWduT2JqZWN0PjwvZz48L2c+PGcgdHJhbnNmb3JtPSJ0cmFuc2xhdGUoLTk3LjI3ODEyOTU3NzYzNjcyLCA5KSIgY2xhc3M9Im1lbWJlcnMtZ3JvdXAgdGV4dCI+PC9nPjxnIHRyYW5zZm9ybT0idHJhbnNsYXRlKC05Ny4yNzgxMjk1Nzc2MzY3MiwgMzkpIiBjbGFzcz0ibWV0aG9kcy1ncm91cCB0ZXh0Ij48ZyB0cmFuc2Zvcm09InRyYW5zbGF0ZSgwLC0xMikiIHN0eWxlPSIiIGNsYXNzPSJsYWJlbCI+PGZvcmVpZ25PYmplY3QgaGVpZ2h0PSIyNCIgd2lkdGg9IjExMi41NjI1Ij48ZGl2IHN0eWxlPSJkaXNwbGF5OiB0YWJsZS1jZWxsOyB3aGl0ZS1zcGFjZTogbm93cmFwOyBsaW5lLWhlaWdodDogMS41OyBtYXgtd2lkdGg6IDE3MXB4OyB0ZXh0LWFsaWduOiBjZW50ZXI7IiB4bWxucz0iaHR0cDovL3d3dy53My5vcmcvMTk5OS94aHRtbCI+PHNwYW4gc3R5bGU9IiIgY2xhc3M9Im5vZGVMYWJlbCBtYXJrZG93bi1ub2RlLWxhYmVsIj48cD4rYXNrUXVlc3Rpb25zKCk8L3A+PC9zcGFuPjwvZGl2PjwvZm9yZWlnbk9iamVjdD48L2c+PC9nPjxnIHN0eWxlPSIiIGNsYXNzPSJkaXZpZGVyIj48cGF0aCBzdHlsZT0iIiBmaWxsPSJub25lIiBzdHJva2Utd2lkdGg9IjEuMyIgc3Ryb2tlPSIjOTk5IiBkPSJNLTEwOS4yNzgxMjk1Nzc2MzY3MiAtMTUgQy0yNS4xNDU2MTcwODA2MzkxNTUgLTE1LCA1OC45ODY4OTU0MTYzNTg0MSAtMTUsIDEwOS4yNzgxMjk1Nzc2MzY3MiAtMTUgTS0xMDkuMjc4MTI5NTc3NjM2NzIgLTE1IEMtMzguNjc4OTE4OTE5MjM3NzMgLTE1LCAzMS45MjAyOTE3MzkxNjEyNTcgLTE1LCAxMDkuMjc4MTI5NTc3NjM2NzIgLTE1Ij48L3BhdGg+PC9nPjxnIHN0eWxlPSIiIGNsYXNzPSJkaXZpZGVyIj48cGF0aCBzdHlsZT0iIiBmaWxsPSJub25lIiBzdHJva2Utd2lkdGg9IjEuMyIgc3Ryb2tlPSIjOTk5IiBkPSJNLTEwOS4yNzgxMjk1Nzc2MzY3MiA5IEMtMzMuNTg5NzM4ODIyNzMxNDkgOSwgNDIuMDk4NjUxOTMyMTczNzQgOSwgMTA5LjI3ODEyOTU3NzYzNjcyIDkgTS0xMDkuMjc4MTI5NTc3NjM2NzIgOSBDLTI2LjAyMjY0NTgxMTgwNDcwOCA5LCA1Ny4yMzI4Mzc5NTQwMjczIDksIDEwOS4yNzgxMjk1Nzc2MzY3MiA5Ij48L3BhdGg+PC9nPjwvZz48ZyB0cmFuc2Zvcm09InRyYW5zbGF0ZSgzODIuMzk2ODg4NzMyOTEwMTYsIDY5MC4xOTk5OTg4NTU1OTA4KSIgaWQ9ImNsYXNzSWQtTWFuYWdlckludGVydmlld2VyLTIiIGNsYXNzPSJub2RlIGRlZmF1bHQiPjxnIGNsYXNzPSJiYXNpYyBsYWJlbC1jb250YWluZXIiPjxwYXRoIHN0eWxlPSIiIGZpbGw9IiNlZWUiIHN0cm9rZS13aWR0aD0iMCIgc3Ryb2tlPSJub25lIiBkPSJNLTEwNS44NDA2Mjk1Nzc2MzY3MiAtNjMgTDEwNS44NDA2Mjk1Nzc2MzY3MiAtNjMgTDEwNS44NDA2Mjk1Nzc2MzY3MiA2MyBMLTEwNS44NDA2Mjk1Nzc2MzY3MiA2MyI+PC9wYXRoPjxwYXRoIHN0eWxlPSIiIGZpbGw9Im5vbmUiIHN0cm9rZS13aWR0aD0iMS4zIiBzdHJva2U9IiM5OTkiIGQ9Ik0tMTA1Ljg0MDYyOTU3NzYzNjcyIC02MyBDLTMyLjU0NzQ3ODM2MDY4MTQ5NSAtNjMsIDQwLjc0NTY3Mjg1NjI3MzczIC02MywgMTA1Ljg0MDYyOTU3NzYzNjcyIC02MyBNLTEwNS44NDA2Mjk1Nzc2MzY3MiAtNjMgQy0yNi43NzAxOTQ3ODM0MDgzMyAtNjMsIDUyLjMwMDI0MDAxMDgyMDA2IC02MywgMTA1Ljg0MDYyOTU3NzYzNjcyIC02MyBNMTA1Ljg0MDYyOTU3NzYzNjcyIC02MyBDMTA1Ljg0MDYyOTU3NzYzNjcyIC0zMC40ODc0NDE2MzE2MTU2MSwgMTA1Ljg0MDYyOTU3NzYzNjcyIDIuMDI1MTE2NzM2NzY4NzgsIDEwNS44NDA2Mjk1Nzc2MzY3MiA2MyBNMTA1Ljg0MDYyOTU3NzYzNjcyIC02MyBDMTA1Ljg0MDYyOTU3NzYzNjcyIC0zMy41ODI3MzA3Nzg2NzIwOSwgMTA1Ljg0MDYyOTU3NzYzNjcyIC00LjE2NTQ2MTU1NzM0NDE4LCAxMDUuODQwNjI5NTc3NjM2NzIgNjMgTTEwNS44NDA2Mjk1Nzc2MzY3MiA2MyBDMzguOTI4MjQxNDY5NTQ1ODI0IDYzLCAtMjcuOTg0MTQ2NjM4NTQ1MDcgNjMsIC0xMDUuODQwNjI5NTc3NjM2NzIgNjMgTTEwNS44NDA2Mjk1Nzc2MzY3MiA2MyBDNDEuOTIyNzIzMDc2MjYzMjEgNjMsIC0yMS45OTUxODM0MjUxMTAyOTggNjMsIC0xMDUuODQwNjI5NTc3NjM2NzIgNjMgTS0xMDUuODQwNjI5NTc3NjM2NzIgNjMgQy0xMDUuODQwNjI5NTc3NjM2NzIgMzYuMDk0MDA1MDAwMzk1ODc1LCAtMTA1Ljg0MDYyOTU3NzYzNjcyIDkuMTg4MDEwMDAwNzkxNzUsIC0xMDUuODQwNjI5NTc3NjM2NzIgLTYzIE0tMTA1Ljg0MDYyOTU3NzYzNjcyIDYzIEMtMTA1Ljg0MDYyOTU3NzYzNjcyIDE4Ljc4MzI5OTQ1MjUwMjEsIC0xMDUuODQwNjI5NTc3NjM2NzIgLTI1LjQzMzQwMTA5NDk5NTgsIC0xMDUuODQwNjI5NTc3NjM2NzIgLTYzIj48L3BhdGg+PC9nPjxnIHRyYW5zZm9ybT0idHJhbnNsYXRlKDAsIC0zOSkiIGNsYXNzPSJhbm5vdGF0aW9uLWdyb3VwIHRleHQiPjwvZz48ZyB0cmFuc2Zvcm09InRyYW5zbGF0ZSgtNzUuMTE4NzUxNTI1ODc4OSwgLTM5KSIgY2xhc3M9ImxhYmVsLWdyb3VwIHRleHQiPjxnIHRyYW5zZm9ybT0idHJhbnNsYXRlKDAsLTEyKSIgc3R5bGU9ImZvbnQtd2VpZ2h0OiBib2xkZXIiIGNsYXNzPSJsYWJlbCI+PGZvcmVpZ25PYmplY3QgaGVpZ2h0PSIyNCIgd2lkdGg9IjE1MC4yMzc1MDMwNTE3NTc4Ij48ZGl2IHN0eWxlPSJkaXNwbGF5OiB0YWJsZS1jZWxsOyB3aGl0ZS1zcGFjZTogbm93cmFwOyBsaW5lLWhlaWdodDogMS41OyBtYXgtd2lkdGg6IDE5MnB4OyB0ZXh0LWFsaWduOiBjZW50ZXI7IiB4bWxucz0iaHR0cDovL3d3dy53My5vcmcvMTk5OS94aHRtbCI+PHNwYW4gc3R5bGU9IiIgY2xhc3M9Im5vZGVMYWJlbCBtYXJrZG93bi1ub2RlLWxhYmVsIj48cD5NYW5hZ2VySW50ZXJ2aWV3ZXI8L3A+PC9zcGFuPjwvZGl2PjwvZm9yZWlnbk9iamVjdD48L2c+PC9nPjxnIHRyYW5zZm9ybT0idHJhbnNsYXRlKC05My44NDA2Mjk1Nzc2MzY3MiwgOSkiIGNsYXNzPSJtZW1iZXJzLWdyb3VwIHRleHQiPjwvZz48ZyB0cmFuc2Zvcm09InRyYW5zbGF0ZSgtOTMuODQwNjI5NTc3NjM2NzIsIDM5KSIgY2xhc3M9Im1ldGhvZHMtZ3JvdXAgdGV4dCI+PGcgdHJhbnNmb3JtPSJ0cmFuc2xhdGUoMCwtMTIpIiBzdHlsZT0iIiBjbGFzcz0ibGFiZWwiPjxmb3JlaWduT2JqZWN0IGhlaWdodD0iMjQiIHdpZHRoPSIxMTIuNTYyNSI+PGRpdiBzdHlsZT0iZGlzcGxheTogdGFibGUtY2VsbDsgd2hpdGUtc3BhY2U6IG5vd3JhcDsgbGluZS1oZWlnaHQ6IDEuNTsgbWF4LXdpZHRoOiAxNzFweDsgdGV4dC1hbGlnbjogY2VudGVyOyIgeG1sbnM9Imh0dHA6Ly93d3cudzMub3JnLzE5OTkveGh0bWwiPjxzcGFuIHN0eWxlPSIiIGNsYXNzPSJub2RlTGFiZWwgbWFya2Rvd24tbm9kZS1sYWJlbCI+PHA+K2Fza1F1ZXN0aW9ucygpPC9wPjwvc3Bhbj48L2Rpdj48L2ZvcmVpZ25PYmplY3Q+PC9nPjwvZz48ZyBzdHlsZT0iIiBjbGFzcz0iZGl2aWRlciI+PHBhdGggc3R5bGU9IiIgZmlsbD0ibm9uZSIgc3Ryb2tlLXdpZHRoPSIxLjMiIHN0cm9rZT0iIzk5OSIgZD0iTS0xMDUuODQwNjI5NTc3NjM2NzIgLTE1IEMtNDEuNjQzODc2NDQ5NzA3Njc2IC0xNSwgMjIuNTUyODc2Njc4MjIxMzY3IC0xNSwgMTA1Ljg0MDYyOTU3NzYzNjcyIC0xNSBNLTEwNS44NDA2Mjk1Nzc2MzY3MiAtMTUgQy0yNS40MzcwNDY5OTY2MTMzNDcgLTE1LCA1NC45NjY1MzU1ODQ0MTAwMjUgLTE1LCAxMDUuODQwNjI5NTc3NjM2NzIgLTE1Ij48L3BhdGg+PC9nPjxnIHN0eWxlPSIiIGNsYXNzPSJkaXZpZGVyIj48cGF0aCBzdHlsZT0iIiBmaWxsPSJub25lIiBzdHJva2Utd2lkdGg9IjEuMyIgc3Ryb2tlPSIjOTk5IiBkPSJNLTEwNS44NDA2Mjk1Nzc2MzY3MiA5IEMtMjguMDkxMTY1ODQwNDcyNTg0IDksIDQ5LjY1ODI5Nzg5NjY5MTU1IDksIDEwNS44NDA2Mjk1Nzc2MzY3MiA5IE0tMTA1Ljg0MDYyOTU3NzYzNjcyIDkgQy0yMy42MzQ2ODIyMjEyMjYxODYgOSwgNTguNTcxMjY1MTM1MTg0MzUgOSwgMTA1Ljg0MDYyOTU3NzYzNjcyIDkiPjwvcGF0aD48L2c+PC9nPjxnIHRyYW5zZm9ybT0idHJhbnNsYXRlKDI0OS44Mzc1MDkxNTUyNzM0NCwgMjY5LjM5OTk5OTYxODUzMDMpIiBpZD0iY2xhc3NJZC1JbnRlcnZpZXdlckZhY3RvcnktMyIgY2xhc3M9Im5vZGUgZGVmYXVsdCI+PGcgY2xhc3M9ImJhc2ljIGxhYmVsLWNvbnRhaW5lciI+PHBhdGggc3R5bGU9IiIgZmlsbD0iI2VlZSIgc3Ryb2tlLXdpZHRoPSIwIiBzdHJva2U9Im5vbmUiIGQ9Ik0tMTk4Ljk0Mzc1NjEwMzUxNTYyIC02MyBMMTk4Ljk0Mzc1NjEwMzUxNTYyIC02MyBMMTk4Ljk0Mzc1NjEwMzUxNTYyIDYzIEwtMTk4Ljk0Mzc1NjEwMzUxNTYyIDYzIj48L3BhdGg+PHBhdGggc3R5bGU9IiIgZmlsbD0ibm9uZSIgc3Ryb2tlLXdpZHRoPSIxLjMiIHN0cm9rZT0iIzk5OSIgZD0iTS0xOTguOTQzNzU2MTAzNTE1NjIgLTYzIEMtNDQuMjQzMzc4MTk0NDg3NTc2IC02MywgMTEwLjQ1Njk5OTcxNDU0MDQ3IC02MywgMTk4Ljk0Mzc1NjEwMzUxNTYyIC02MyBNLTE5OC45NDM3NTYxMDM1MTU2MiAtNjMgQy05Ni43MDQ3MDM2MTkzNDk3MSAtNjMsIDUuNTM0MzQ4ODY0ODE2MTk1IC02MywgMTk4Ljk0Mzc1NjEwMzUxNTYyIC02MyBNMTk4Ljk0Mzc1NjEwMzUxNTYyIC02MyBDMTk4Ljk0Mzc1NjEwMzUxNTYyIC0yNi45MjQ5Njk1MTk5MDc5MzMsIDE5OC45NDM3NTYxMDM1MTU2MiA5LjE1MDA2MDk2MDE4NDEzNSwgMTk4Ljk0Mzc1NjEwMzUxNTYyIDYzIE0xOTguOTQzNzU2MTAzNTE1NjIgLTYzIEMxOTguOTQzNzU2MTAzNTE1NjIgLTIyLjA5NjA4ODc0OTYxMDE5NiwgMTk4Ljk0Mzc1NjEwMzUxNTYyIDE4LjgwNzgyMjUwMDc3OTYwOCwgMTk4Ljk0Mzc1NjEwMzUxNTYyIDYzIE0xOTguOTQzNzU2MTAzNTE1NjIgNjMgQzkyLjgxMTU2ODg0OTI2MDE3IDYzLCAtMTMuMzIwNjE4NDA0OTk1Mjg3IDYzLCAtMTk4Ljk0Mzc1NjEwMzUxNTYyIDYzIE0xOTguOTQzNzU2MTAzNTE1NjIgNjMgQzU2LjQyOTEyNzE4OTIxODI2IDYzLCAtODYuMDg1NTAxNzI1MDc5MSA2MywgLTE5OC45NDM3NTYxMDM1MTU2MiA2MyBNLTE5OC45NDM3NTYxMDM1MTU2MiA2MyBDLTE5OC45NDM3NTYxMDM1MTU2MiAxOC45MjAyNjI4MDA2OTMxMDIsIC0xOTguOTQzNzU2MTAzNTE1NjIgLTI1LjE1OTQ3NDM5ODYxMzc5NiwgLTE5OC45NDM3NTYxMDM1MTU2MiAtNjMgTS0xOTguOTQzNzU2MTAzNTE1NjIgNjMgQy0xOTguOTQzNzU2MTAzNTE1NjIgMjQuMDUyMDA5Mzg1NjAzMjksIC0xOTguOTQzNzU2MTAzNTE1NjIgLTE0Ljg5NTk4MTIyODc5MzQxNywgLTE5OC45NDM3NTYxMDM1MTU2MiAtNjMiPjwvcGF0aD48L2c+PGcgdHJhbnNmb3JtPSJ0cmFuc2xhdGUoMCwgLTM5KSIgY2xhc3M9ImFubm90YXRpb24tZ3JvdXAgdGV4dCI+PC9nPjxnIHRyYW5zZm9ybT0idHJhbnNsYXRlKC03MS45MTI0OTg0NzQxMjExLCAtMzkpIiBjbGFzcz0ibGFiZWwtZ3JvdXAgdGV4dCI+PGcgdHJhbnNmb3JtPSJ0cmFuc2xhdGUoMCwtMTIpIiBzdHlsZT0iZm9udC13ZWlnaHQ6IGJvbGRlciIgY2xhc3M9ImxhYmVsIj48Zm9yZWlnbk9iamVjdCBoZWlnaHQ9IjI0IiB3aWR0aD0iMTQzLjgyNDk5Njk0ODI0MjIiPjxkaXYgc3R5bGU9ImRpc3BsYXk6IHRhYmxlLWNlbGw7IHdoaXRlLXNwYWNlOiBub3dyYXA7IGxpbmUtaGVpZ2h0OiAxLjU7IG1heC13aWR0aDogMTc5cHg7IHRleHQtYWxpZ246IGNlbnRlcjsiIHhtbG5zPSJodHRwOi8vd3d3LnczLm9yZy8xOTk5L3hodG1sIj48c3BhbiBzdHlsZT0iIiBjbGFzcz0ibm9kZUxhYmVsIG1hcmtkb3duLW5vZGUtbGFiZWwiPjxwPkludGVydmlld2VyRmFjdG9yeTwvcD48L3NwYW4+PC9kaXY+PC9mb3JlaWduT2JqZWN0PjwvZz48L2c+PGcgdHJhbnNmb3JtPSJ0cmFuc2xhdGUoLTE4Ni45NDM3NTYxMDM1MTU2MiwgOSkiIGNsYXNzPSJtZW1iZXJzLWdyb3VwIHRleHQiPjwvZz48ZyB0cmFuc2Zvcm09InRyYW5zbGF0ZSgtMTg2Ljk0Mzc1NjEwMzUxNTYyLCAzOSkiIGNsYXNzPSJtZXRob2RzLWdyb3VwIHRleHQiPjxnIHRyYW5zZm9ybT0idHJhbnNsYXRlKDAsLTEyKSIgc3R5bGU9IiIgY2xhc3M9ImxhYmVsIj48Zm9yZWlnbk9iamVjdCBoZWlnaHQ9IjI0IiB3aWR0aD0iMzAxLjk3NTAwNjEwMzUxNTYiPjxkaXYgc3R5bGU9ImRpc3BsYXk6IHRhYmxlLWNlbGw7IHdoaXRlLXNwYWNlOiBub3dyYXA7IGxpbmUtaGVpZ2h0OiAxLjU7IG1heC13aWR0aDogMzQ3cHg7IHRleHQtYWxpZ246IGNlbnRlcjsiIHhtbG5zPSJodHRwOi8vd3d3LnczLm9yZy8xOTk5L3hodG1sIj48c3BhbiBzdHlsZT0iIiBjbGFzcz0ibm9kZUxhYmVsIG1hcmtkb3duLW5vZGUtbGFiZWwiPjxwPitnZXRJbnRlcnZpZXdlcihTdHJpbmcgdHlwZSkgOiBJbnRlcnZpZXdlcjwvcD48L3NwYW4+PC9kaXY+PC9mb3JlaWduT2JqZWN0PjwvZz48L2c+PGcgc3R5bGU9IiIgY2xhc3M9ImRpdmlkZXIiPjxwYXRoIHN0eWxlPSIiIGZpbGw9Im5vbmUiIHN0cm9rZS13aWR0aD0iMS4zIiBzdHJva2U9IiM5OTkiIGQ9Ik0tMTk4Ljk0Mzc1NjEwMzUxNTYyIC0xNSBDLTEwMS4wODIwMDY2MjU1MjgwMiAtMTUsIC0zLjIyMDI1NzE0NzU0MDQyMjcgLTE1LCAxOTguOTQzNzU2MTAzNTE1NjIgLTE1IE0tMTk4Ljk0Mzc1NjEwMzUxNTYyIC0xNSBDLTQzLjY1OTQ3OTM1NjQxNTAzNCAtMTUsIDExMS42MjQ3OTczOTA2ODU1NiAtMTUsIDE5OC45NDM3NTYxMDM1MTU2MiAtMTUiPjwvcGF0aD48L2c+PGcgc3R5bGU9IiIgY2xhc3M9ImRpdmlkZXIiPjxwYXRoIHN0eWxlPSIiIGZpbGw9Im5vbmUiIHN0cm9rZS13aWR0aD0iMS4zIiBzdHJva2U9IiM5OTkiIGQ9Ik0tMTk4Ljk0Mzc1NjEwMzUxNTYyIDkgQy0xMTAuNTI5OTg1MTQyNTEzNTcgOSwgLTIyLjExNjIxNDE4MTUxMTUxIDksIDE5OC45NDM3NTYxMDM1MTU2MiA5IE0tMTk4Ljk0Mzc1NjEwMzUxNTYyIDkgQy00OS42MjU1NjE1NDIwOTc1NiA5LCA5OS42OTI2MzMwMTkzMjA1MSA5LCAxOTguOTQzNzU2MTAzNTE1NjIgOSI+PC9wYXRoPjwvZz48L2c+PGcgdHJhbnNmb3JtPSJ0cmFuc2xhdGUoMjQ5LjgzNzUwOTE1NTI3MzQ0LCA3MSkiIGlkPSJjbGFzc0lkLUZhY3RvcnlQLTQiIGNsYXNzPSJub2RlIGRlZmF1bHQiPjxnIGNsYXNzPSJiYXNpYyBsYWJlbC1jb250YWluZXIiPjxwYXRoIHN0eWxlPSIiIGZpbGw9IiNlZWUiIHN0cm9rZS13aWR0aD0iMCIgc3Ryb2tlPSJub25lIiBkPSJNLTk5LjU4NDM3MzQ3NDEyMTEgLTYzIEw5OS41ODQzNzM0NzQxMjExIC02MyBMOTkuNTg0MzczNDc0MTIxMSA2MyBMLTk5LjU4NDM3MzQ3NDEyMTEgNjMiPjwvcGF0aD48cGF0aCBzdHlsZT0iIiBmaWxsPSJub25lIiBzdHJva2Utd2lkdGg9IjEuMyIgc3Ryb2tlPSIjOTk5IiBkPSJNLTk5LjU4NDM3MzQ3NDEyMTEgLTYzIEMtMzUuNDEwNTAyNTk0OTI1MzYgLTYzLCAyOC43NjMzNjgyODQyNzAzNyAtNjMsIDk5LjU4NDM3MzQ3NDEyMTEgLTYzIE0tOTkuNTg0MzczNDc0MTIxMSAtNjMgQy0yNy4zMjE1OTQ2MjI5OTQ4MjMgLTYzLCA0NC45NDExODQyMjgxMzE0NSAtNjMsIDk5LjU4NDM3MzQ3NDEyMTEgLTYzIE05OS41ODQzNzM0NzQxMjExIC02MyBDOTkuNTg0MzczNDc0MTIxMSAtMjYuNjg2NDg3OTIzNzY5ODI1LCA5OS41ODQzNzM0NzQxMjExIDkuNjI3MDI0MTUyNDYwMzUsIDk5LjU4NDM3MzQ3NDEyMTEgNjMgTTk5LjU4NDM3MzQ3NDEyMTEgLTYzIEM5OS41ODQzNzM0NzQxMjExIC0yOS4zMDc5OTc0NjQ5ODI0LCA5OS41ODQzNzM0NzQxMjExIDQuMzg0MDA1MDcwMDM1MjAxLCA5OS41ODQzNzM0NzQxMjExIDYzIE05OS41ODQzNzM0NzQxMjExIDYzIEM1Ny44MzI2ODQ5MDkwNjY5NSA2MywgMTYuMDgwOTk2MzQ0MDEyODAzIDYzLCAtOTkuNTg0MzczNDc0MTIxMSA2MyBNOTkuNTg0MzczNDc0MTIxMSA2MyBDNTguODc2NjkwNzY2Nzk0MTA2IDYzLCAxOC4xNjkwMDgwNTk0NjcxMTcgNjMsIC05OS41ODQzNzM0NzQxMjExIDYzIE0tOTkuNTg0MzczNDc0MTIxMSA2MyBDLTk5LjU4NDM3MzQ3NDEyMTEgMjUuODgzMDAyODA2NDI4MTk1LCAtOTkuNTg0MzczNDc0MTIxMSAtMTEuMjMzOTk0Mzg3MTQzNjEsIC05OS41ODQzNzM0NzQxMjExIC02MyBNLTk5LjU4NDM3MzQ3NDEyMTEgNjMgQy05OS41ODQzNzM0NzQxMjExIDE2LjAzNTg0NTE3NjIwNTg5LCAtOTkuNTg0MzczNDc0MTIxMSAtMzAuOTI4MzA5NjQ3NTg4MjIsIC05OS41ODQzNzM0NzQxMjExIC02MyI+PC9wYXRoPjwvZz48ZyB0cmFuc2Zvcm09InRyYW5zbGF0ZSgwLCAtMzkpIiBjbGFzcz0iYW5ub3RhdGlvbi1ncm91cCB0ZXh0Ij48L2c+PGcgdHJhbnNmb3JtPSJ0cmFuc2xhdGUoLTMyLjczMTI1MDc2MjkzOTQ1LCAtMzkpIiBjbGFzcz0ibGFiZWwtZ3JvdXAgdGV4dCI+PGcgdHJhbnNmb3JtPSJ0cmFuc2xhdGUoMCwtMTIpIiBzdHlsZT0iZm9udC13ZWlnaHQ6IGJvbGRlciIgY2xhc3M9ImxhYmVsIj48Zm9yZWlnbk9iamVjdCBoZWlnaHQ9IjI0IiB3aWR0aD0iNjUuNDYyNTAxNTI1ODc4OSI+PGRpdiBzdHlsZT0iZGlzcGxheTogdGFibGUtY2VsbDsgd2hpdGUtc3BhY2U6IG5vd3JhcDsgbGluZS1oZWlnaHQ6IDEuNTsgbWF4LXdpZHRoOiAxMTBweDsgdGV4dC1hbGlnbjogY2VudGVyOyIgeG1sbnM9Imh0dHA6Ly93d3cudzMub3JnLzE5OTkveGh0bWwiPjxzcGFuIHN0eWxlPSIiIGNsYXNzPSJub2RlTGFiZWwgbWFya2Rvd24tbm9kZS1sYWJlbCI+PHA+RmFjdG9yeVA8L3A+PC9zcGFuPjwvZGl2PjwvZm9yZWlnbk9iamVjdD48L2c+PC9nPjxnIHRyYW5zZm9ybT0idHJhbnNsYXRlKC04Ny41ODQzNzM0NzQxMjExLCA5KSIgY2xhc3M9Im1lbWJlcnMtZ3JvdXAgdGV4dCI+PC9nPjxnIHRyYW5zZm9ybT0idHJhbnNsYXRlKC04Ny41ODQzNzM0NzQxMjExLCAzOSkiIGNsYXNzPSJtZXRob2RzLWdyb3VwIHRleHQiPjxnIHRyYW5zZm9ybT0idHJhbnNsYXRlKDAsLTEyKSIgc3R5bGU9IiIgY2xhc3M9ImxhYmVsIj48Zm9yZWlnbk9iamVjdCBoZWlnaHQ9IjI0IiB3aWR0aD0iMTQyLjQzNzUiPjxkaXYgc3R5bGU9ImRpc3BsYXk6IHRhYmxlLWNlbGw7IHdoaXRlLXNwYWNlOiBub3dyYXA7IGxpbmUtaGVpZ2h0OiAxLjU7IG1heC13aWR0aDogMTk4cHg7IHRleHQtYWxpZ246IGNlbnRlcjsiIHhtbG5zPSJodHRwOi8vd3d3LnczLm9yZy8xOTk5L3hodG1sIj48c3BhbiBzdHlsZT0iIiBjbGFzcz0ibm9kZUxhYmVsIG1hcmtkb3duLW5vZGUtbGFiZWwiPjxwPittYWluKFN0cmluZ1tdIGFyZ3MpPC9wPjwvc3Bhbj48L2Rpdj48L2ZvcmVpZ25PYmplY3Q+PC9nPjwvZz48ZyBzdHlsZT0iIiBjbGFzcz0iZGl2aWRlciI+PHBhdGggc3R5bGU9IiIgZmlsbD0ibm9uZSIgc3Ryb2tlLXdpZHRoPSIxLjMiIHN0cm9rZT0iIzk5OSIgZD0iTS05OS41ODQzNzM0NzQxMjExIC0xNSBDLTMzLjYxMTQyNTYyODk1MDY0IC0xNSwgMzIuMzYxNTIyMjE2MjE5ODEgLTE1LCA5OS41ODQzNzM0NzQxMjExIC0xNSBNLTk5LjU4NDM3MzQ3NDEyMTEgLTE1IEMtMzcuOTUyNzM3MjIwNjA4MTg1IC0xNSwgMjMuNjc4ODk5MDMyOTA0NzI0IC0xNSwgOTkuNTg0MzczNDc0MTIxMSAtMTUiPjwvcGF0aD48L2c+PGcgc3R5bGU9IiIgY2xhc3M9ImRpdmlkZXIiPjxwYXRoIHN0eWxlPSIiIGZpbGw9Im5vbmUiIHN0cm9rZS13aWR0aD0iMS4zIiBzdHJva2U9IiM5OTkiIGQ9Ik0tOTkuNTg0MzczNDc0MTIxMSA5IEMtMjAuNjEzMzUyNjIzMjAxMTUyIDksIDU4LjM1NzY2ODIyNzcxODc5IDksIDk5LjU4NDM3MzQ3NDEyMTEgOSBNLTk5LjU4NDM3MzQ3NDEyMTEgOSBDLTI2LjM4OTMyNzc2NDc1NjggOSwgNDYuODA1NzE3OTQ0NjA3NDk0IDksIDk5LjU4NDM3MzQ3NDEyMTEgOSI+PC9wYXRoPjwvZz48L2c+PC9nPjwvZz48L2c+PC9zdmc+;" vertex="1" parent="1">
                        <mxGeometry x="140" y="-90" width="496.23748779296875" height="761.2000732421875" as="geometry"/>
                    </mxCell>
                </UserObject>
            </root>
        </mxGraphModel>
    </diagram>
</mxfile>